<mxfile host="Electron" modified="2024-08-25T20:20:54.931Z" agent="Mozilla/5.0 (Windows NT 10.0; Win64; x64) AppleWebKit/537.36 (KHTML, like Gecko) draw.io/22.1.2 Chrome/114.0.5735.289 Electron/25.9.4 Safari/537.36" etag="Y5vlKbah_t2HIgqcAuJP" version="22.1.2" type="device">
  <diagram name="Page-1" id="OfR6eoVgL22z0WGMNQ6X">
    <mxGraphModel dx="500" dy="319" grid="1" gridSize="10" guides="1" tooltips="1" connect="1" arrows="1" fold="1" page="1" pageScale="1" pageWidth="1920" pageHeight="1200" math="0" shadow="0">
      <root>
        <mxCell id="0" />
        <mxCell id="1" parent="0" />
        <mxCell id="3bl4f5IkYvNZOOiRdJgG-18" style="edgeStyle=orthogonalEdgeStyle;rounded=0;orthogonalLoop=1;jettySize=auto;html=1;entryX=0.5;entryY=0;entryDx=0;entryDy=0;fontFamily=Helvetica;fontSize=12;fontColor=default;" edge="1" parent="1" source="3bl4f5IkYvNZOOiRdJgG-1" target="3bl4f5IkYvNZOOiRdJgG-17">
          <mxGeometry relative="1" as="geometry">
            <Array as="points">
              <mxPoint x="1000" y="600" />
              <mxPoint x="790" y="600" />
            </Array>
          </mxGeometry>
        </mxCell>
        <mxCell id="3bl4f5IkYvNZOOiRdJgG-20" style="edgeStyle=orthogonalEdgeStyle;rounded=0;orthogonalLoop=1;jettySize=auto;html=1;entryX=0.5;entryY=0;entryDx=0;entryDy=0;fontFamily=Helvetica;fontSize=12;fontColor=default;" edge="1" parent="1" source="3bl4f5IkYvNZOOiRdJgG-1" target="3bl4f5IkYvNZOOiRdJgG-19">
          <mxGeometry relative="1" as="geometry" />
        </mxCell>
        <mxCell id="3bl4f5IkYvNZOOiRdJgG-24" style="edgeStyle=orthogonalEdgeStyle;rounded=0;orthogonalLoop=1;jettySize=auto;html=1;fontFamily=Helvetica;fontSize=12;fontColor=default;" edge="1" parent="1" source="3bl4f5IkYvNZOOiRdJgG-1" target="3bl4f5IkYvNZOOiRdJgG-23">
          <mxGeometry relative="1" as="geometry" />
        </mxCell>
        <mxCell id="3bl4f5IkYvNZOOiRdJgG-25" style="edgeStyle=orthogonalEdgeStyle;rounded=0;orthogonalLoop=1;jettySize=auto;html=1;fontFamily=Helvetica;fontSize=12;fontColor=default;" edge="1" parent="1" source="3bl4f5IkYvNZOOiRdJgG-1" target="3bl4f5IkYvNZOOiRdJgG-22">
          <mxGeometry relative="1" as="geometry">
            <Array as="points">
              <mxPoint x="1000" y="600" />
              <mxPoint x="1210" y="600" />
            </Array>
          </mxGeometry>
        </mxCell>
        <mxCell id="3bl4f5IkYvNZOOiRdJgG-1" value="Render" style="rounded=1;whiteSpace=wrap;html=1;" vertex="1" parent="1">
          <mxGeometry x="940" y="510" width="120" height="60" as="geometry" />
        </mxCell>
        <mxCell id="3bl4f5IkYvNZOOiRdJgG-8" style="edgeStyle=orthogonalEdgeStyle;rounded=0;orthogonalLoop=1;jettySize=auto;html=1;fontFamily=Helvetica;fontSize=12;fontColor=default;" edge="1" parent="1" source="3bl4f5IkYvNZOOiRdJgG-2" target="3bl4f5IkYvNZOOiRdJgG-4">
          <mxGeometry relative="1" as="geometry" />
        </mxCell>
        <mxCell id="3bl4f5IkYvNZOOiRdJgG-16" style="edgeStyle=orthogonalEdgeStyle;rounded=0;orthogonalLoop=1;jettySize=auto;html=1;fontFamily=Helvetica;fontSize=12;fontColor=default;" edge="1" parent="1" source="3bl4f5IkYvNZOOiRdJgG-2" target="3bl4f5IkYvNZOOiRdJgG-15">
          <mxGeometry relative="1" as="geometry" />
        </mxCell>
        <mxCell id="3bl4f5IkYvNZOOiRdJgG-2" value="Components" style="rounded=1;whiteSpace=wrap;html=1;" vertex="1" parent="1">
          <mxGeometry x="320" y="510" width="120" height="60" as="geometry" />
        </mxCell>
        <mxCell id="3bl4f5IkYvNZOOiRdJgG-9" style="edgeStyle=orthogonalEdgeStyle;rounded=0;orthogonalLoop=1;jettySize=auto;html=1;entryX=0;entryY=0.5;entryDx=0;entryDy=0;fontFamily=Helvetica;fontSize=12;fontColor=default;" edge="1" parent="1" source="3bl4f5IkYvNZOOiRdJgG-4" target="3bl4f5IkYvNZOOiRdJgG-1">
          <mxGeometry relative="1" as="geometry" />
        </mxCell>
        <mxCell id="3bl4f5IkYvNZOOiRdJgG-11" style="edgeStyle=orthogonalEdgeStyle;rounded=0;orthogonalLoop=1;jettySize=auto;html=1;entryX=0.5;entryY=0;entryDx=0;entryDy=0;fontFamily=Helvetica;fontSize=12;fontColor=default;" edge="1" parent="1" source="3bl4f5IkYvNZOOiRdJgG-4" target="3bl4f5IkYvNZOOiRdJgG-10">
          <mxGeometry relative="1" as="geometry" />
        </mxCell>
        <mxCell id="3bl4f5IkYvNZOOiRdJgG-4" value="Audio" style="rounded=1;whiteSpace=wrap;html=1;" vertex="1" parent="1">
          <mxGeometry x="550" y="510" width="120" height="60" as="geometry" />
        </mxCell>
        <mxCell id="3bl4f5IkYvNZOOiRdJgG-7" style="edgeStyle=orthogonalEdgeStyle;rounded=0;orthogonalLoop=1;jettySize=auto;html=1;entryX=0;entryY=0.5;entryDx=0;entryDy=0;fontFamily=Helvetica;fontSize=12;fontColor=default;" edge="1" parent="1" source="3bl4f5IkYvNZOOiRdJgG-6" target="3bl4f5IkYvNZOOiRdJgG-2">
          <mxGeometry relative="1" as="geometry" />
        </mxCell>
        <mxCell id="3bl4f5IkYvNZOOiRdJgG-6" value="Frame Start" style="rhombus;whiteSpace=wrap;html=1;rounded=1;strokeColor=default;align=center;verticalAlign=middle;fontFamily=Helvetica;fontSize=12;fontColor=default;fillColor=default;" vertex="1" parent="1">
          <mxGeometry x="190" y="500" width="80" height="80" as="geometry" />
        </mxCell>
        <mxCell id="3bl4f5IkYvNZOOiRdJgG-14" style="edgeStyle=orthogonalEdgeStyle;rounded=0;orthogonalLoop=1;jettySize=auto;html=1;fontFamily=Helvetica;fontSize=12;fontColor=default;" edge="1" parent="1" source="3bl4f5IkYvNZOOiRdJgG-10" target="3bl4f5IkYvNZOOiRdJgG-13">
          <mxGeometry relative="1" as="geometry" />
        </mxCell>
        <mxCell id="3bl4f5IkYvNZOOiRdJgG-10" value="Audio Source&lt;br&gt;Audio Player&lt;br&gt;Audio Clip&lt;br&gt;etc" style="shape=process;whiteSpace=wrap;html=1;backgroundOutline=1;rounded=1;strokeColor=default;align=center;verticalAlign=middle;fontFamily=Helvetica;fontSize=12;fontColor=default;fillColor=default;" vertex="1" parent="1">
          <mxGeometry x="550" y="630" width="120" height="60" as="geometry" />
        </mxCell>
        <mxCell id="3bl4f5IkYvNZOOiRdJgG-13" value="WASAPI / ALSA" style="shape=cube;whiteSpace=wrap;html=1;boundedLbl=1;backgroundOutline=1;darkOpacity=0.05;darkOpacity2=0.1;rounded=1;strokeColor=default;align=center;verticalAlign=middle;fontFamily=Helvetica;fontSize=12;fontColor=default;fillColor=default;size=10;" vertex="1" parent="1">
          <mxGeometry x="550" y="750" width="120" height="40" as="geometry" />
        </mxCell>
        <mxCell id="3bl4f5IkYvNZOOiRdJgG-15" value="SoldierAI &lt;br&gt;PlayerController&lt;br&gt;UIUpdater&lt;br&gt;etc" style="shape=process;whiteSpace=wrap;html=1;backgroundOutline=1;rounded=1;strokeColor=default;align=center;verticalAlign=middle;fontFamily=Helvetica;fontSize=12;fontColor=default;fillColor=default;" vertex="1" parent="1">
          <mxGeometry x="320" y="630" width="120" height="60" as="geometry" />
        </mxCell>
        <mxCell id="3bl4f5IkYvNZOOiRdJgG-17" value="Mesh Component List" style="shape=process;whiteSpace=wrap;html=1;backgroundOutline=1;rounded=1;strokeColor=default;align=center;verticalAlign=middle;fontFamily=Helvetica;fontSize=12;fontColor=default;fillColor=default;" vertex="1" parent="1">
          <mxGeometry x="730" y="630" width="120" height="60" as="geometry" />
        </mxCell>
        <mxCell id="3bl4f5IkYvNZOOiRdJgG-19" value="Transform List" style="shape=process;whiteSpace=wrap;html=1;backgroundOutline=1;rounded=1;strokeColor=default;align=center;verticalAlign=middle;fontFamily=Helvetica;fontSize=12;fontColor=default;fillColor=default;" vertex="1" parent="1">
          <mxGeometry x="870" y="630" width="120" height="60" as="geometry" />
        </mxCell>
        <mxCell id="3bl4f5IkYvNZOOiRdJgG-21" value="Shader Inputs" style="shape=cube;whiteSpace=wrap;html=1;boundedLbl=1;backgroundOutline=1;darkOpacity=0.05;darkOpacity2=0.1;rounded=1;strokeColor=default;align=center;verticalAlign=middle;fontFamily=Helvetica;fontSize=12;fontColor=default;fillColor=default;size=10;" vertex="1" parent="1">
          <mxGeometry x="730" y="800" width="540" height="40" as="geometry" />
        </mxCell>
        <mxCell id="3bl4f5IkYvNZOOiRdJgG-22" value="Texture List" style="shape=process;whiteSpace=wrap;html=1;backgroundOutline=1;rounded=1;strokeColor=default;align=center;verticalAlign=middle;fontFamily=Helvetica;fontSize=12;fontColor=default;fillColor=default;" vertex="1" parent="1">
          <mxGeometry x="1150" y="630" width="120" height="60" as="geometry" />
        </mxCell>
        <mxCell id="3bl4f5IkYvNZOOiRdJgG-23" value="Active Camera" style="shape=process;whiteSpace=wrap;html=1;backgroundOutline=1;rounded=1;strokeColor=default;align=center;verticalAlign=middle;fontFamily=Helvetica;fontSize=12;fontColor=default;fillColor=default;" vertex="1" parent="1">
          <mxGeometry x="1010" y="630" width="120" height="60" as="geometry" />
        </mxCell>
        <mxCell id="3bl4f5IkYvNZOOiRdJgG-26" style="edgeStyle=orthogonalEdgeStyle;rounded=0;orthogonalLoop=1;jettySize=auto;html=1;entryX=0.111;entryY=0;entryDx=0;entryDy=0;entryPerimeter=0;fontFamily=Helvetica;fontSize=12;fontColor=default;" edge="1" parent="1" source="3bl4f5IkYvNZOOiRdJgG-17" target="3bl4f5IkYvNZOOiRdJgG-21">
          <mxGeometry relative="1" as="geometry" />
        </mxCell>
        <mxCell id="3bl4f5IkYvNZOOiRdJgG-27" style="edgeStyle=orthogonalEdgeStyle;rounded=0;orthogonalLoop=1;jettySize=auto;html=1;entryX=0.371;entryY=-0.029;entryDx=0;entryDy=0;entryPerimeter=0;fontFamily=Helvetica;fontSize=12;fontColor=default;" edge="1" parent="1" source="3bl4f5IkYvNZOOiRdJgG-19" target="3bl4f5IkYvNZOOiRdJgG-21">
          <mxGeometry relative="1" as="geometry" />
        </mxCell>
        <mxCell id="3bl4f5IkYvNZOOiRdJgG-28" style="edgeStyle=orthogonalEdgeStyle;rounded=0;orthogonalLoop=1;jettySize=auto;html=1;entryX=0.628;entryY=-0.046;entryDx=0;entryDy=0;entryPerimeter=0;fontFamily=Helvetica;fontSize=12;fontColor=default;" edge="1" parent="1" source="3bl4f5IkYvNZOOiRdJgG-23" target="3bl4f5IkYvNZOOiRdJgG-21">
          <mxGeometry relative="1" as="geometry" />
        </mxCell>
        <mxCell id="3bl4f5IkYvNZOOiRdJgG-29" style="edgeStyle=orthogonalEdgeStyle;rounded=0;orthogonalLoop=1;jettySize=auto;html=1;entryX=0.889;entryY=-0.016;entryDx=0;entryDy=0;entryPerimeter=0;fontFamily=Helvetica;fontSize=12;fontColor=default;" edge="1" parent="1" source="3bl4f5IkYvNZOOiRdJgG-22" target="3bl4f5IkYvNZOOiRdJgG-21">
          <mxGeometry relative="1" as="geometry" />
        </mxCell>
        <mxCell id="3bl4f5IkYvNZOOiRdJgG-30" value="Example" style="verticalAlign=top;align=left;spacingTop=8;spacingLeft=2;spacingRight=12;shape=cube;size=10;direction=south;fontStyle=4;html=1;whiteSpace=wrap;rounded=1;strokeColor=default;fontFamily=Helvetica;fontSize=12;fontColor=default;fillColor=default;" vertex="1" parent="1">
          <mxGeometry x="240" y="730" width="280" height="160" as="geometry" />
        </mxCell>
        <mxCell id="3bl4f5IkYvNZOOiRdJgG-31" value="&lt;font face=&quot;Courier New&quot;&gt;foreach(pool in componentPools)&lt;br&gt;&lt;div style=&quot;text-align: left;&quot;&gt;&lt;span style=&quot;background-color: initial;&quot;&gt;&amp;nbsp;{&lt;/span&gt;&lt;/div&gt;&lt;div style=&quot;text-align: left;&quot;&gt;&lt;span style=&quot;background-color: initial;&quot;&gt;&lt;span style=&quot;white-space: pre;&quot;&gt;&#x9;&lt;/span&gt;foreach(component in pool)&lt;br&gt;&lt;/span&gt;&lt;/div&gt;&lt;div style=&quot;text-align: left;&quot;&gt;&lt;span style=&quot;background-color: initial;&quot;&gt;&lt;span style=&quot;white-space: pre;&quot;&gt;&#x9;&lt;/span&gt;{&lt;br&gt;&lt;/span&gt;&lt;/div&gt;&lt;div style=&quot;text-align: left;&quot;&gt;&lt;span style=&quot;background-color: initial;&quot;&gt;&lt;span style=&quot;white-space: pre;&quot;&gt;&#x9;&lt;/span&gt;&lt;span style=&quot;white-space: pre;&quot;&gt;&#x9;&lt;/span&gt;component.update()&lt;br&gt;&lt;/span&gt;&lt;/div&gt;&lt;div style=&quot;text-align: left;&quot;&gt;&lt;span style=&quot;background-color: initial;&quot;&gt;&lt;span style=&quot;white-space: pre;&quot;&gt;&#x9;&lt;/span&gt;}&lt;br&gt;&lt;/span&gt;&lt;/div&gt;&lt;div style=&quot;text-align: left;&quot;&gt;&lt;span style=&quot;background-color: initial;&quot;&gt;&amp;nbsp;}&lt;/span&gt;&lt;/div&gt;&lt;/font&gt;" style="text;html=1;align=center;verticalAlign=middle;resizable=0;points=[];autosize=1;strokeColor=none;fillColor=none;fontSize=12;fontFamily=Helvetica;fontColor=default;" vertex="1" parent="1">
          <mxGeometry x="230" y="760" width="270" height="120" as="geometry" />
        </mxCell>
        <mxCell id="3bl4f5IkYvNZOOiRdJgG-33" value="Example" style="verticalAlign=top;align=left;spacingTop=8;spacingLeft=2;spacingRight=12;shape=cube;size=10;direction=south;fontStyle=4;html=1;whiteSpace=wrap;rounded=1;strokeColor=default;fontFamily=Helvetica;fontSize=12;fontColor=default;fillColor=default;" vertex="1" parent="1">
          <mxGeometry x="880" y="910" width="280" height="160" as="geometry" />
        </mxCell>
        <mxCell id="3bl4f5IkYvNZOOiRdJgG-34" value="&lt;font face=&quot;Courier New&quot;&gt;foreach(meshcomponent){&lt;br&gt;&lt;div style=&quot;text-align: left;&quot;&gt;&lt;span style=&quot;white-space: pre;&quot;&gt;&#x9;&lt;/span&gt;&lt;br&gt;&lt;/div&gt;&lt;div style=&quot;text-align: left;&quot;&gt;&lt;span style=&quot;background-color: initial;&quot;&gt;}&lt;/span&gt;&lt;/div&gt;&lt;/font&gt;" style="text;html=1;align=center;verticalAlign=middle;resizable=0;points=[];autosize=1;strokeColor=none;fillColor=none;fontSize=12;fontFamily=Helvetica;fontColor=default;" vertex="1" parent="1">
          <mxGeometry x="910" y="970" width="190" height="60" as="geometry" />
        </mxCell>
      </root>
    </mxGraphModel>
  </diagram>
</mxfile>
